<svg xmlns="http://www.w3.org/2000/svg" width="24.306" height="22.691" viewBox="0 0 24.306 22.691">
  <g id="noun_Calendar_2080626" transform="translate(-0.14 -0.109)">
    <g id="Group">
      <path id="Path" d="M3.161,0H.839A.833.833,0,0,0,0,.822v1.4a.833.833,0,0,0,.839.822H3.161A.833.833,0,0,0,4,2.22V.822A.852.852,0,0,0,3.161,0Z" transform="translate(10.293 15.703)" fill="#303030"/>
      <path id="Path-2" data-name="Path" d="M3.161,0H.839A.833.833,0,0,0,0,.822v1.4a.833.833,0,0,0,.839.822H3.161A.833.833,0,0,0,4,2.22V.822A.852.852,0,0,0,3.161,0Z" transform="translate(16.287 15.703)" fill="#303030"/>
      <path id="Path-3" data-name="Path" d="M3.161,0H.839A.833.833,0,0,0,0,.822v1.4a.833.833,0,0,0,.839.822H3.161A.833.833,0,0,0,4,2.22V.822A.852.852,0,0,0,3.161,0Z" transform="translate(4.307 15.703)" fill="#303030"/>
      <path id="Path-4" data-name="Path" d="M3.161,0H.839A.833.833,0,0,0,0,.822v1.4a.833.833,0,0,0,.839.822H3.161A.833.833,0,0,0,4,2.22V.822A.852.852,0,0,0,3.161,0Z" transform="translate(10.293 10.578)" fill="#303030"/>
      <path id="Path-5" data-name="Path" d="M3.161,0H.839A.833.833,0,0,0,0,.822v1.4a.833.833,0,0,0,.839.822H3.161A.833.833,0,0,0,4,2.22V.822A.852.852,0,0,0,3.161,0Z" transform="translate(4.307 10.578)" fill="#303030"/>
      <path id="Path-6" data-name="Path" d="M3.161,0H.839A.833.833,0,0,0,0,.822v1.4a.833.833,0,0,0,.839.822H3.161A.833.833,0,0,0,4,2.22V.822A.852.852,0,0,0,3.161,0Z" transform="translate(16.279 10.578)" fill="#303030"/>
      <path id="Shape" d="M21.341,22.692H2.853A2.828,2.828,0,0,1,0,19.9V4.96A2.7,2.7,0,0,1,.727,3.124V3.1a2.864,2.864,0,0,1,2.126-.932h2.1V.932A.932.932,0,0,1,5.9,0H7.329a.931.931,0,0,1,.95.931V2.165H16V.932A.932.932,0,0,1,16.951,0h1.427a.931.931,0,0,1,.95.931V2.165h2.1a2.861,2.861,0,0,1,2.126.932h.028v.027a2.7,2.7,0,0,1,.727,1.836V20.237a2.159,2.159,0,0,1-1.035,2.11A4.1,4.1,0,0,1,21.341,22.692ZM1.9,8.5V19.9a.932.932,0,0,0,.951.931H21.318a1.207,1.207,0,0,0,.8-.336,1.132,1.132,0,0,0,.262-.882V8.5Z" transform="translate(0.14 0.11)" fill="#303030"/>
    </g>
  </g>
</svg>
