<svg id="Group" xmlns="http://www.w3.org/2000/svg" width="81" height="81" viewBox="0 0 81 81">
  <path id="Combined_Shape" data-name="Combined Shape" d="M40.5,81A40.511,40.511,0,0,1,24.736,3.183,40.511,40.511,0,0,1,56.264,77.817,40.247,40.247,0,0,1,40.5,81Zm0-75A34.509,34.509,0,0,0,27.071,72.289,34.509,34.509,0,0,0,53.929,8.711,34.284,34.284,0,0,0,40.5,6Z" fill="#303030"/>
  <path id="Path" d="M4.851,21.175c-2.532-2.21-6.184,1.757-4.358,4.212S13.043,37,13.043,37a2.35,2.35,0,0,0,3.845,0C17.715,35.637,39.6,4.011,39.6,4.011c1.826-2.454-3.124-5.572-4.95-3.117L14.618,30.74Z" transform="translate(21 22)" fill="#303030"/>
</svg>
