<svg xmlns="http://www.w3.org/2000/svg" width="22" height="22" viewBox="0 0 22 22">
  <path id="Shape" d="M11.015,22h-.023a11.312,11.312,0,0,1-1.268-.072.618.618,0,0,1-.541-.645A2.439,2.439,0,0,0,7.7,18.9a2.537,2.537,0,0,0-2.747.623.614.614,0,0,1-.839.064,10.933,10.933,0,0,1-1.741-1.76.612.612,0,0,1,.068-.832,2.462,2.462,0,0,0,.614-2.72A2.411,2.411,0,0,0,.81,12.761H.79a.707.707,0,0,1-.717-.541,10.76,10.76,0,0,1,0-2.5.6.6,0,0,1,.595-.543H.79A2.553,2.553,0,0,0,3.1,7.7a2.439,2.439,0,0,0-.623-2.75.62.62,0,0,1-.064-.838,10.908,10.908,0,0,1,1.778-1.76.6.6,0,0,1,.378-.131.613.613,0,0,1,.452.2A2.566,2.566,0,0,0,6.858,3.2a2.546,2.546,0,0,0,.889-.16A2.456,2.456,0,0,0,9.256.693.611.611,0,0,1,9.8.066a11.093,11.093,0,0,1,2.474.007.616.616,0,0,1,.541.644A2.461,2.461,0,0,0,14.3,3.107a2.52,2.52,0,0,0,.908.169,2.541,2.541,0,0,0,1.834-.787.614.614,0,0,1,.839-.068,11.148,11.148,0,0,1,1.745,1.76.611.611,0,0,1-.068.833A2.421,2.421,0,0,0,21.17,9.242h.052a.715.715,0,0,1,.709.541,11.337,11.337,0,0,1,0,2.493.617.617,0,0,1-.611.542h-.208a2.42,2.42,0,0,0-1.6,4.236.616.616,0,0,1,.064.839A11.125,11.125,0,0,1,17.8,19.65a.607.607,0,0,1-.378.131.613.613,0,0,1-.451-.2,2.553,2.553,0,0,0-1.837-.785,2.527,2.527,0,0,0-.881.158,2.451,2.451,0,0,0-1.5,2.345.617.617,0,0,1-.545.632A10.476,10.476,0,0,1,11.015,22Zm0-14.644a3.668,3.668,0,1,0,3.669,3.668A3.673,3.673,0,0,0,11.016,7.356Z" fill="#303030"/>
</svg>
